#Comment line ignore any data following # character 
#Hierarchical Translation and Rotation (.htr) file 
[Header]	
#Header keywords are followed by a single value 
FileType HTR		#Single word string
DataType HTRS		#Translation followed by rotation and scale data
FileVersion 1		#integer
NumSegments 84		#integer
NumFrames 2		#integer
DataFrameRate 30		#integer, data frame rate in this file
EulerRotationOrder ZYX
CalibrationUnits mm
RotationUnits Degrees
GlobalAxisofGravity Y
BoneLengthAxis Y
ScaleFactor 1.00
[SegmentNames&Hierarchy]
#CHILD	PARENT
MASTER GLOBAL
root MASTER
chest root
L_mid_tent01 root
R_mid_tent01 root
spine01 root
Bip01_Neck chest
L_humerus chest
R_humerus chest
weapon_bone chest
Bip01_Head Bip01_Neck
eye_left_bone Bip01_Head
eye_right_bone Bip01_Head
L_forearm L_humerus
L_front_hand L_forearm
L_weapon_bone L_forearm
L_front_hand01_01 L_front_hand
L_front_hand02_01 L_front_hand
L_front_hand03_01 L_front_hand
L_front_hand01_02 L_front_hand01_01
L_front_hand02_02 L_front_hand02_01
L_front_hand03_02 L_front_hand03_01
R_forearm R_humerus
R_front_hand R_forearm
R_weapon_bone R_forearm
R_front_hand01_01 R_front_hand
R_front_hand02_01 R_front_hand
R_front_hand03_01 R_front_hand
R_front_hand01_02 R_front_hand01_01
R_front_hand02_02 R_front_hand02_01
R_front_hand03_02 R_front_hand03_01
null_rope01_connect L_mid_tent01
Rope1_Seg01 null_rope01_connect
Rope1_Seg02 Rope1_Seg01
Rope1_Seg03 Rope1_Seg02
Rope1_Seg04 Rope1_Seg03
Rope1_Seg05 Rope1_Seg04
Rope1_Seg06 Rope1_Seg05
Rope1_Seg07 Rope1_Seg06
Rope1_Seg09 Rope1_Seg07
L_mid_hand01 Rope1_Seg09
L_mid_hand02 Rope1_Seg09
L_mid_hand03 Rope1_Seg09
null_rope02_connect R_mid_tent01
Rope2_Seg01 null_rope02_connect
Rope2_Seg02 Rope2_Seg01
Rope2_Seg03 Rope2_Seg02
Rope2_Seg04 Rope2_Seg03
Rope2_Seg05 Rope2_Seg04
Rope2_Seg06 Rope2_Seg05
Rope2_Seg07 Rope2_Seg06
Rope2_Seg09 Rope2_Seg07
R_mid_hand01 Rope2_Seg09
R_mid_hand02 Rope2_Seg09
R_mid_hand03 Rope2_Seg09
spine02 spine01
spine03 spine02
pelvis spine03
null_rope03_connect pelvis
null_rope04_connect pelvis
Rope3_Seg01 null_rope03_connect
Rope3_Seg02 Rope3_Seg01
Rope3_Seg03 Rope3_Seg02
Rope3_Seg04 Rope3_Seg03
Rope3_Seg05 Rope3_Seg04
Rope3_Seg06 Rope3_Seg05
Rope3_Seg07 Rope3_Seg06
Rope3_Seg08 Rope3_Seg07
Rope3_Seg09 Rope3_Seg08
R_rear_hand01 Rope3_Seg09
R_rear_hand02 Rope3_Seg09
R_rear_hand03 Rope3_Seg09
Rope4_Seg01 null_rope04_connect
Rope4_Seg02 Rope4_Seg01
Rope4_Seg03 Rope4_Seg02
Rope4_Seg04 Rope4_Seg03
Rope4_Seg05 Rope4_Seg04
Rope4_Seg06 Rope4_Seg05
Rope4_Seg07 Rope4_Seg06
Rope4_Seg08 Rope4_Seg07
Rope4_Seg09 Rope4_Seg08
L_rear_hand01 Rope4_Seg09
L_rear_hand02 Rope4_Seg09
L_rear_hand03 Rope4_Seg09
[BasePosition]
#SegmentName Tx, Ty, Tz, Rx, Ry, Rz, BoneLength
MASTER 0.000000 0.000000 0.000000 -90.000000 0.000000 0.000000 10.000000 
root 0.000000 0.000000 0.000000 0.000000 0.000000 0.000000 10.000000 
chest 0.000000 0.000000 0.000000 0.000000 0.000000 0.000000 10.000000 
L_mid_tent01 0.000000 0.000000 0.000000 0.000000 0.000000 0.000000 10.000000 
R_mid_tent01 0.000000 0.000000 0.000000 0.000000 0.000000 0.000000 10.000000 
spine01 0.000000 0.000000 0.000000 0.000000 0.000000 0.000000 10.000000 
Bip01_Neck 0.000000 0.000000 0.000000 0.000000 0.000000 0.000000 10.000000 
L_humerus 0.000000 0.000000 0.000000 0.000000 0.000000 0.000000 10.000000 
R_humerus 0.000000 0.000000 0.000000 0.000000 0.000000 0.000000 10.000000 
weapon_bone 0.000000 0.000000 0.000000 0.000000 0.000000 0.000000 10.000000 
Bip01_Head 0.000000 0.000000 0.000000 0.000000 0.000000 0.000000 10.000000 
eye_left_bone 0.000000 0.000000 0.000000 0.000000 0.000000 0.000000 10.000000 
eye_right_bone 0.000000 0.000000 0.000000 0.000000 0.000000 0.000000 10.000000 
L_forearm 0.000000 0.000000 0.000000 0.000000 0.000000 0.000000 10.000000 
L_front_hand 0.000000 0.000000 0.000000 0.000000 0.000000 0.000000 10.000000 
L_weapon_bone 0.000000 0.000000 0.000000 0.000000 0.000000 0.000000 10.000000 
L_front_hand01_01 0.000000 0.000000 0.000000 0.000000 0.000000 0.000000 10.000000 
L_front_hand02_01 0.000000 0.000000 0.000000 0.000000 0.000000 0.000000 10.000000 
L_front_hand03_01 0.000000 0.000000 0.000000 0.000000 0.000000 0.000000 10.000000 
L_front_hand01_02 0.000000 0.000000 0.000000 0.000000 0.000000 0.000000 10.000000 
L_front_hand02_02 0.000000 0.000000 0.000000 0.000000 0.000000 0.000000 10.000000 
L_front_hand03_02 0.000000 0.000000 0.000000 0.000000 0.000000 0.000000 10.000000 
R_forearm 0.000000 0.000000 0.000000 0.000000 0.000000 0.000000 10.000000 
R_front_hand 0.000000 0.000000 0.000000 0.000000 0.000000 0.000000 10.000000 
R_weapon_bone 0.000000 0.000000 0.000000 0.000000 0.000000 0.000000 10.000000 
R_front_hand01_01 0.000000 0.000000 0.000000 0.000000 0.000000 0.000000 10.000000 
R_front_hand02_01 0.000000 0.000000 0.000000 0.000000 0.000000 0.000000 10.000000 
R_front_hand03_01 0.000000 0.000000 0.000000 0.000000 0.000000 0.000000 10.000000 
R_front_hand01_02 0.000000 0.000000 0.000000 0.000000 0.000000 0.000000 10.000000 
R_front_hand02_02 0.000000 0.000000 0.000000 0.000000 0.000000 0.000000 10.000000 
R_front_hand03_02 0.000000 0.000000 0.000000 0.000000 0.000000 0.000000 10.000000 
null_rope01_connect 0.000000 0.000000 0.000000 0.000000 0.000000 0.000000 10.000000 
Rope1_Seg01 0.000000 0.000000 0.000000 0.000000 0.000000 0.000000 10.000000 
Rope1_Seg02 0.000000 0.000000 0.000000 0.000000 0.000000 0.000000 10.000000 
Rope1_Seg03 0.000000 0.000000 0.000000 0.000000 0.000000 0.000000 10.000000 
Rope1_Seg04 0.000000 0.000000 0.000000 0.000000 0.000000 0.000000 10.000000 
Rope1_Seg05 0.000000 0.000000 0.000000 0.000000 0.000000 0.000000 10.000000 
Rope1_Seg06 0.000000 0.000000 0.000000 0.000000 0.000000 0.000000 10.000000 
Rope1_Seg07 0.000000 0.000000 0.000000 0.000000 0.000000 0.000000 10.000000 
Rope1_Seg09 0.000000 0.000000 0.000000 0.000000 0.000000 0.000000 10.000000 
L_mid_hand01 0.000000 0.000000 0.000000 0.000000 0.000000 0.000000 10.000000 
L_mid_hand02 0.000000 0.000000 0.000000 0.000000 0.000000 0.000000 10.000000 
L_mid_hand03 0.000000 0.000000 0.000000 0.000000 0.000000 0.000000 10.000000 
null_rope02_connect 0.000000 0.000000 0.000000 0.000000 0.000000 0.000000 10.000000 
Rope2_Seg01 0.000000 0.000000 0.000000 0.000000 0.000000 0.000000 10.000000 
Rope2_Seg02 0.000000 0.000000 0.000000 0.000000 0.000000 0.000000 10.000000 
Rope2_Seg03 0.000000 0.000000 0.000000 0.000000 0.000000 0.000000 10.000000 
Rope2_Seg04 0.000000 0.000000 0.000000 0.000000 0.000000 0.000000 10.000000 
Rope2_Seg05 0.000000 0.000000 0.000000 0.000000 0.000000 0.000000 10.000000 
Rope2_Seg06 0.000000 0.000000 0.000000 0.000000 0.000000 0.000000 10.000000 
Rope2_Seg07 0.000000 0.000000 0.000000 0.000000 0.000000 0.000000 10.000000 
Rope2_Seg09 0.000000 0.000000 0.000000 0.000000 0.000000 0.000000 10.000000 
R_mid_hand01 0.000000 0.000000 0.000000 0.000000 0.000000 0.000000 10.000000 
R_mid_hand02 0.000000 0.000000 0.000000 0.000000 0.000000 0.000000 10.000000 
R_mid_hand03 0.000000 0.000000 0.000000 0.000000 0.000000 0.000000 10.000000 
spine02 0.000000 0.000000 0.000000 0.000000 0.000000 0.000000 10.000000 
spine03 0.000000 0.000000 0.000000 0.000000 0.000000 0.000000 10.000000 
pelvis 0.000000 0.000000 0.000000 0.000000 0.000000 0.000000 10.000000 
null_rope03_connect 0.000000 0.000000 0.000000 0.000000 0.000000 0.000000 10.000000 
null_rope04_connect 0.000000 0.000000 0.000000 0.000000 0.000000 0.000000 10.000000 
Rope3_Seg01 0.000000 0.000000 0.000000 0.000000 0.000000 0.000000 10.000000 
Rope3_Seg02 0.000000 0.000000 0.000000 0.000000 0.000000 0.000000 10.000000 
Rope3_Seg03 0.000000 0.000000 0.000000 0.000000 0.000000 0.000000 10.000000 
Rope3_Seg04 0.000000 0.000000 0.000000 0.000000 0.000000 0.000000 10.000000 
Rope3_Seg05 0.000000 0.000000 0.000000 0.000000 0.000000 0.000000 10.000000 
Rope3_Seg06 0.000000 0.000000 0.000000 0.000000 0.000000 0.000000 10.000000 
Rope3_Seg07 0.000000 0.000000 0.000000 0.000000 0.000000 0.000000 10.000000 
Rope3_Seg08 0.000000 0.000000 0.000000 0.000000 0.000000 0.000000 10.000000 
Rope3_Seg09 0.000000 0.000000 0.000000 0.000000 0.000000 0.000000 10.000000 
R_rear_hand01 0.000000 0.000000 0.000000 0.000000 0.000000 0.000000 10.000000 
R_rear_hand02 0.000000 0.000000 0.000000 0.000000 0.000000 0.000000 10.000000 
R_rear_hand03 0.000000 0.000000 0.000000 0.000000 0.000000 0.000000 10.000000 
Rope4_Seg01 0.000000 0.000000 0.000000 0.000000 0.000000 0.000000 10.000000 
Rope4_Seg02 0.000000 0.000000 0.000000 0.000000 0.000000 0.000000 10.000000 
Rope4_Seg03 0.000000 0.000000 0.000000 0.000000 0.000000 0.000000 10.000000 
Rope4_Seg04 0.000000 0.000000 0.000000 0.000000 0.000000 0.000000 10.000000 
Rope4_Seg05 0.000000 0.000000 0.000000 0.000000 0.000000 0.000000 10.000000 
Rope4_Seg06 0.000000 0.000000 0.000000 0.000000 0.000000 0.000000 10.000000 
Rope4_Seg07 0.000000 0.000000 0.000000 0.000000 0.000000 0.000000 10.000000 
Rope4_Seg08 0.000000 0.000000 0.000000 0.000000 0.000000 0.000000 10.000000 
Rope4_Seg09 0.000000 0.000000 0.000000 0.000000 0.000000 0.000000 10.000000 
L_rear_hand01 0.000000 0.000000 0.000000 0.000000 0.000000 0.000000 10.000000 
L_rear_hand02 0.000000 0.000000 0.000000 0.000000 0.000000 0.000000 10.000000 
L_rear_hand03 0.000000 0.000000 0.000000 0.000000 0.000000 0.000000 10.000000 
#Beginning of Data. Separated by tabs
#Fr	Tx	Ty	Tz	Rx	Ry	Rz	SF
[MASTER]
14 0.000000 0.000000 0.000000 0.001660 0.001660 0.001660 0.000000
15 0.000000 0.000000 0.000000 0.001660 0.001660 0.001660 0.000000
[root]
14 -19.957577 3.252451 1386.671021 -91.728897 -11.584496 -89.471619 1386.818481
15 -24.187346 6.179635 1384.628540 -91.728912 -11.584499 -89.471634 1384.853516
[chest]
14 -84.512650 -34.090519 0.000000 -2.170494 -0.006436 168.239609 91.129311
15 -84.512650 -34.090519 0.000000 -2.170494 -0.006436 168.239609 91.129311
[L_mid_tent01]
14 27.299511 22.177458 -249.918259 -20.661390 12.026041 12.983019 252.381134
15 27.299511 22.177458 -249.918259 -20.661396 12.026044 12.983024 252.381134
[R_mid_tent01]
14 23.228794 24.509907 226.238495 -165.192200 -17.956036 24.056787 228.744751
15 23.228794 24.509907 226.238495 -165.192200 -17.956034 24.056787 228.744751
[spine01]
14 -0.361383 -0.195265 0.000000 -0.000001 -0.000007 22.052340 0.410763
15 -0.361383 -0.195265 0.000000 -0.000001 -0.000007 22.052340 0.410763
[Bip01_Neck]
14 165.484543 71.581718 0.000119 175.896118 1.177290 24.871183 180.302734
15 165.484543 71.581718 0.000119 175.896118 1.177290 24.871183 180.302734
[L_humerus]
14 -13.983130 -135.272980 -120.471481 -5.480129 68.873367 84.573456 181.680161
15 -13.983130 -135.272980 -120.471481 -5.480129 68.873367 84.573456 181.680161
[R_humerus]
14 -13.983309 -135.273102 125.287651 27.897165 -69.888802 67.752319 184.909012
15 -13.983309 -135.273102 125.287651 27.897171 -69.888786 67.752296 184.909012
[weapon_bone]
14 235.964890 -300.705902 0.000000 0.000000 -89.951546 -128.212341 382.234833
15 235.964890 -300.705902 0.000000 0.000000 -89.951546 -128.212341 382.234833
[Bip01_Head]
14 193.865707 99.525291 7.890739 1.727521 4.534425 -43.429157 218.062973
15 193.865707 99.525291 7.890739 1.727521 4.534425 -43.429153 218.062973
[eye_left_bone]
14 -24.626970 125.451866 -64.772606 0.000000 -90.000000 -99.840431 143.318359
15 -24.626970 125.451866 -64.772606 0.000000 -90.000000 -99.840431 143.318359
[eye_right_bone]
14 -24.626970 125.451866 64.327362 0.000000 -89.965736 80.156380 143.117676
15 -24.626970 125.451866 64.327362 0.000000 -89.965736 80.156380 143.117676
[L_forearm]
14 322.776093 0.000000 -0.000119 0.000396 -0.002314 -109.419975 322.776093
15 322.776093 0.000000 -0.000119 0.000396 -0.002314 -109.419975 322.776093
[L_front_hand]
14 241.149185 -0.042021 -3.300071 -179.659958 -2.242151 -0.019832 241.171753
15 241.149185 -0.042021 -3.300071 -179.659958 -2.242151 -0.019832 241.171753
[L_weapon_bone]
14 156.183838 0.000000 0.000000 0.000014 0.000007 0.000001 156.183838
15 156.183838 0.000000 0.000000 0.000014 0.000007 0.000001 156.183838
[L_front_hand01_01]
14 86.095154 20.947098 -0.655860 -0.366594 -0.477154 75.385574 88.609184
15 86.095154 20.947098 -0.655860 -0.366594 -0.477154 75.385574 88.609184
[L_front_hand02_01]
14 86.935165 -11.437475 24.513514 154.399796 -59.883835 -61.369587 91.046425
15 86.935165 -11.437475 24.513514 154.399796 -59.883835 -61.369587 91.046425
[L_front_hand03_01]
14 86.637497 -14.123976 -20.424902 -153.913864 58.118130 -62.702873 90.126129
15 86.637497 -14.123976 -20.424902 -153.913849 58.118122 -62.702866 90.126129
[L_front_hand01_02]
14 71.020905 -0.000179 0.000030 0.000334 -0.002323 -106.379684 71.020905
15 71.020905 -0.000179 0.000030 0.000334 -0.002323 -106.379684 71.020905
[L_front_hand02_02]
14 71.020927 -0.000119 0.000060 0.000334 -0.002323 -106.379684 71.020927
15 71.020927 -0.000119 0.000060 0.000334 -0.002323 -106.379684 71.020927
[L_front_hand03_02]
14 71.020905 -0.000060 0.000060 0.000334 -0.002323 -106.379684 71.020905
15 71.020905 -0.000060 0.000060 0.000334 -0.002323 -106.379684 71.020905
[R_forearm]
14 322.776428 -0.000060 0.000030 0.202103 0.065158 -108.062805 322.776428
15 322.776428 -0.000060 0.000030 0.202103 0.065158 -108.062805 322.776428
[R_front_hand]
14 238.847015 -0.006795 2.210259 -0.270529 1.703932 2.322530 238.857239
15 238.847015 -0.006795 2.210259 -0.270529 1.703932 2.322531 238.857239
[R_weapon_bone]
14 155.664093 0.002503 -0.000030 0.003487 0.001180 -90.988930 155.664078
15 155.664093 0.002503 -0.000030 0.003487 0.001180 -90.988930 155.664078
[R_front_hand01_01]
14 87.624611 14.231146 22.918642 -154.633499 -59.950619 61.746044 91.683487
15 87.624611 14.231146 22.918642 -154.633499 -59.950619 61.746044 91.683487
[R_front_hand02_01]
14 89.356956 14.367283 -19.491137 154.602661 58.302849 63.744389 92.579636
15 89.356956 14.367283 -19.491137 154.602676 58.302864 63.744389 92.579636
[R_front_hand03_01]
14 87.286232 -22.307278 -0.143439 0.162155 -0.423168 -75.767921 90.091743
15 87.286232 -22.307278 -0.143439 0.162155 -0.423168 -75.767921 90.091743
[R_front_hand01_02]
14 71.020905 0.000060 0.000119 0.002323 -0.000334 106.381714 71.020905
15 71.020905 0.000060 0.000119 0.002323 -0.000334 106.381714 71.020905
[R_front_hand02_02]
14 71.020844 -0.000030 -0.000119 0.002323 -0.000334 106.381714 71.020836
15 71.020844 -0.000030 -0.000119 0.002323 -0.000334 106.381714 71.020836
[R_front_hand03_02]
14 71.020905 0.000000 0.000030 0.002323 -0.000334 106.381714 71.020905
15 71.020905 0.000000 0.000030 0.002323 -0.000334 106.381714 71.020905
[null_rope01_connect]
14 328.732483 0.000000 -0.000238 -154.483337 -64.791321 -118.914307 328.732483
15 328.732483 0.000000 -0.000238 -154.483337 -64.791328 -118.914307 328.732483
[Rope1_Seg01]
14 -0.000038 -0.000114 0.000104 67.218338 -1.222481 -129.486801 0.000159
15 -0.000038 -0.000114 0.000104 68.800430 -0.735970 -130.165024 0.000159
[Rope1_Seg02]
14 139.999863 -0.000179 0.000000 -11.136302 5.749518 1.435895 139.999863
15 139.999863 -0.000179 0.000000 -10.561962 5.435766 1.323772 139.999863
[Rope1_Seg03]
14 139.999924 0.000060 -0.000060 -14.129175 5.962906 2.750706 139.999924
15 139.999924 0.000060 -0.000060 -13.438043 5.690613 2.482237 139.999924
[Rope1_Seg04]
14 139.999924 -0.000060 -0.000119 -16.337034 5.869760 4.533387 139.999924
15 139.999924 -0.000060 -0.000119 -14.998835 5.460824 3.732974 139.999924
[Rope1_Seg05]
14 139.999832 0.000119 -0.000060 -20.688002 6.289868 10.710316 139.999832
15 139.999832 0.000119 -0.000060 -22.996458 7.115620 11.371660 139.999832
[Rope1_Seg06]
14 139.999954 0.000119 -0.000060 -6.788708 0.830859 5.945112 139.999954
15 139.999954 0.000119 -0.000060 -7.468344 0.784607 6.739634 139.999954
[Rope1_Seg07]
14 139.999985 0.000060 0.000000 -2.810567 0.119256 2.977268 139.999985
15 139.999985 0.000060 0.000000 -2.886995 0.038075 3.211892 139.999985
[Rope1_Seg09]
14 121.602913 0.000119 -0.000089 -89.793175 -1.359789 0.847147 121.602913
15 121.602913 0.000119 -0.000089 -89.793175 -1.359789 0.847147 121.602913
[L_mid_hand01]
14 103.859421 1.038730 8.195221 106.855484 -31.239275 -9.461397 104.187431
15 103.859421 1.038730 8.195221 106.855484 -31.239275 -9.461397 104.187431
[L_mid_hand02]
14 105.572853 -4.139662 -10.864139 -142.331345 25.752670 -28.774628 106.211075
15 105.572853 -4.139662 -10.864139 -142.331345 25.752670 -28.774628 106.211075
[L_mid_hand03]
14 104.641464 17.579376 -3.913581 -16.122810 9.734291 34.223598 106.179977
15 104.641464 17.579376 -3.913581 -16.122810 9.734291 34.223598 106.179977
[null_rope02_connect]
14 328.732849 0.000179 -0.000119 -140.208786 68.099197 -35.150627 328.732849
15 328.732849 0.000179 -0.000119 -140.208786 68.099220 -35.150631 328.732849
[Rope2_Seg01]
14 0.000095 0.000153 0.000033 -9.770840 4.398990 -32.288349 0.000183
15 0.000095 0.000153 0.000036 -10.945625 5.173849 -32.385742 0.000183
[Rope2_Seg02]
14 139.999741 -0.000060 -0.000119 49.909622 1.499797 -14.604186 139.999756
15 139.999741 -0.000060 -0.000119 48.915730 1.316061 -13.748900 139.999756
[Rope2_Seg03]
14 140.000107 0.000030 0.000000 31.025011 -10.916007 -9.818357 140.000107
15 140.000107 0.000030 0.000000 29.264971 -9.234094 -8.553965 140.000107
[Rope2_Seg04]
14 139.999802 0.000000 -0.000060 13.857254 -14.860714 -4.140334 139.999802
15 139.999802 0.000000 -0.000060 13.916667 -12.669569 -3.836696 139.999802
[Rope2_Seg05]
14 139.999985 -0.000060 0.000119 11.127477 -16.959305 -5.526198 139.999985
15 139.999985 -0.000060 0.000119 13.157891 -19.645102 -5.640854 139.999985
[Rope2_Seg06]
14 139.999893 -0.000030 -0.000119 3.121151 -9.105042 -1.348751 139.999893
15 139.999893 -0.000030 -0.000119 3.434686 -11.421167 -0.873968 139.999893
[Rope2_Seg07]
14 139.999893 0.000060 -0.000060 1.000118 -4.681581 -0.207521 139.999893
15 139.999893 0.000060 -0.000060 0.957951 -5.456436 0.089698 139.999893
[Rope2_Seg09]
14 121.338966 0.000089 -0.000060 33.793236 -1.359788 -0.847141 121.338966
15 121.338966 0.000089 -0.000060 33.793236 -1.359788 -0.847141 121.338966
[R_mid_hand01]
14 104.680779 11.144459 -10.335981 -41.523792 25.424656 28.595957 105.778534
15 104.680779 11.144459 -10.335981 -41.523792 25.424656 28.595957 105.778534
[R_mid_hand02]
14 104.070427 2.443552 8.231699 72.847389 -32.746803 10.013901 104.424065
15 104.070427 2.443552 8.231699 72.847389 -32.746803 10.013901 104.424065
[R_mid_hand03]
14 106.028137 -11.221827 -5.996406 -167.901306 10.259192 -37.009720 106.788818
15 106.028137 -11.221827 -5.996406 -167.901306 10.259192 -37.009720 106.788818
[spine02]
14 129.756927 0.001550 0.000119 0.360061 -4.044797 -12.915058 129.756927
15 129.756927 0.001550 0.000119 0.360061 -4.044797 -12.915058 129.756927
[spine03]
14 78.613846 0.087372 -4.898873 1.896495 3.831288 16.473045 78.766380
15 78.613846 0.087372 -4.898873 1.896495 3.831288 16.473045 78.766380
[pelvis]
14 169.435242 0.051022 0.000000 -0.060465 -0.180225 14.087930 169.435257
15 169.435242 0.051022 0.000000 -0.060465 -0.180225 14.087931 169.435257
[null_rope03_connect]
14 -1.257226 -2.466202 137.391083 156.329987 -89.381348 -94.430771 137.418976
15 -1.257226 -2.466202 137.391083 156.329849 -89.381973 -94.430771 137.418976
[null_rope04_connect]
14 -1.259640 -2.480268 -137.844437 156.329987 -89.381348 -94.430771 137.872513
15 -1.259640 -2.480268 -137.844437 156.329849 -89.381973 -94.430771 137.872513
[Rope3_Seg01]
14 0.000010 0.000038 -0.000114 -140.566299 35.264656 -90.757919 0.000121
15 0.000010 0.000038 -0.000114 -142.308502 34.782436 -94.308861 0.000121
[Rope3_Seg02]
14 139.999924 -0.000119 0.000060 0.979346 -1.215850 -7.130819 139.999924
15 139.999924 -0.000119 0.000060 1.034571 -2.188047 -7.859927 139.999924
[Rope3_Seg03]
14 139.999924 -0.000119 0.000119 0.739626 -1.681419 -9.020782 139.999924
15 139.999924 -0.000119 0.000119 0.812832 -2.872835 -9.751986 139.999924
[Rope3_Seg04]
14 139.999924 0.000119 0.000000 0.549623 -6.220466 -19.603542 139.999924
15 139.999924 0.000119 0.000000 0.956366 -7.799219 -19.424652 139.999924
[Rope3_Seg05]
14 139.999924 -0.000238 0.000060 -1.237951 -0.674916 -8.441624 139.999924
15 139.999924 -0.000238 0.000060 -0.851066 -2.199337 -9.068772 139.999924
[Rope3_Seg06]
14 139.999893 -0.000119 -0.000060 2.997803 12.674977 21.612333 139.999893
15 139.999893 -0.000119 -0.000060 2.070021 11.787449 17.275274 139.999893
[Rope3_Seg07]
14 139.999771 0.000060 -0.000119 1.786757 9.897876 16.165272 139.999771
15 139.999771 0.000060 -0.000119 2.186926 11.219567 16.610023 139.999771
[Rope3_Seg08]
14 139.999985 -0.000060 0.000000 0.840257 4.655327 6.717020 139.999985
15 139.999985 -0.000060 0.000000 1.068993 5.344882 6.918156 139.999985
[Rope3_Seg09]
14 90.185997 -0.000179 -0.000060 89.793228 -1.359877 -0.847183 90.185997
15 90.185997 -0.000179 -0.000060 89.793228 -1.359877 -0.847183 90.185997
[R_rear_hand01]
14 103.366196 -6.073594 -10.757982 -161.551193 16.666374 -30.088671 104.101845
15 103.366196 -6.073594 -10.757982 -161.551193 16.666374 -30.088671 104.101845
[R_rear_hand02]
14 100.509819 12.039542 -7.992327 -34.280552 19.289745 28.875523 101.543350
15 100.509819 12.039542 -7.992327 -34.280552 19.289745 28.875523 101.543350
[R_rear_hand03]
14 101.539970 5.215704 5.435467 83.366440 -30.933914 7.284830 101.819031
15 101.539970 5.215704 5.435467 83.366440 -30.933914 7.284830 101.819031
[Rope4_Seg01]
14 0.000010 0.000038 -0.000114 40.484974 15.362944 -124.541931 0.000121
15 0.000010 0.000038 -0.000114 39.259628 15.845527 -127.356880 0.000121
[Rope4_Seg02]
14 139.999985 0.000060 0.000119 0.620047 12.265147 5.935466 139.999985
15 139.999985 0.000060 0.000119 0.822205 11.581477 6.610770 139.999985
[Rope4_Seg03]
14 139.999924 0.000000 -0.000238 1.221585 15.888100 8.118801 139.999924
15 139.999924 0.000000 -0.000238 1.333142 16.054550 9.420365 139.999924
[Rope4_Seg04]
14 139.999985 0.000000 0.000119 1.908395 26.204786 18.858633 139.999985
15 139.999985 0.000000 0.000119 1.645293 27.782824 22.339512 139.999985
[Rope4_Seg05]
14 139.999802 -0.000060 -0.000119 3.321144 2.700317 -1.929490 139.999802
15 139.999802 -0.000060 -0.000119 2.354450 4.890322 0.493362 139.999802
[Rope4_Seg06]
14 139.999924 0.000000 0.000060 10.175806 -20.093422 -22.806814 139.999924
15 139.999924 0.000000 0.000060 12.458447 -18.287783 -24.294899 139.999924
[Rope4_Seg07]
14 139.999802 0.000000 0.000000 2.716531 -15.158157 -13.323236 139.999802
15 139.999802 0.000000 0.000000 3.677651 -16.103413 -15.246744 139.999802
[Rope4_Seg08]
14 139.999924 0.000000 0.000119 -1.356808 -4.988512 -4.524821 139.999924
15 139.999924 0.000000 0.000119 -1.246441 -5.182603 -4.939108 139.999924
[Rope4_Seg09]
14 90.185791 0.000060 0.000060 -135.617828 2.228885 0.850567 90.185791
15 90.185791 0.000060 0.000060 -135.617828 2.228885 0.850567 90.185791
[L_rear_hand01]
14 101.696655 -8.392275 -7.654577 -34.454281 -18.946800 151.655121 102.329041
15 101.696655 -8.392275 -7.654577 -34.454281 -18.946800 151.655121 102.329041
[L_rear_hand02]
14 102.726799 -1.568258 5.773216 83.407906 30.330435 172.796509 102.900848
15 102.726799 -1.568258 5.773216 83.407906 30.330435 172.796509 102.900848
[L_rear_hand03]
14 104.552910 9.721220 -10.420293 -161.379868 -16.473232 -150.512238 105.519653
15 104.552910 9.721220 -10.420293 -161.379868 -16.473232 -150.512238 105.519653
